# xmcd
#
# Track frame offsets:
#	150
#	17766
#	35988
#	57065
#	73019
#	87963
#	105393
#	124212
#	146242
#	161501
#	180289
#	199934
#	226587
#	243092
#
# Disc length: 3493
#
# Revision: 2
# Processed by: cddbd v1.5.1PL0 Copyright (c) Steve Scherf et al.
# Submitted via: dBpowerAMP V4.0
# Normalized: r1:TRMNUM
#
DISCID=b60da30e
DTITLE=Kitrina Podhlada - Na se dw na gelas
DYEAR=1900
DGENRE=country
TTITLE0=Ti 'nai ayto poy me krata
TTITLE1=Mh m' aggizeis
TTITLE2=Toso Krathses
TTITLE3=Skylos 'h gatos
TTITLE4=Poia nyxta s' eklepse
TTITLE5=Pws ftasame edw
TTITLE6=Na se dw na gelas
TTITLE7=Aspro fos
TTITLE8=Brady Aygoustou
TTITLE9=Ta matia pou koitas
TTITLE10=Oi megales sou stigmes
TTITLE11=Enas dikos sou ouranos
TTITLE12=Thelo Apopse pali na se dw
TTITLE13=Oneira
EXTD=
EXTT0=
EXTT1=
EXTT2=
EXTT3=
EXTT4=
EXTT5=
EXTT6=
EXTT7=
EXTT8=
EXTT9=
EXTT10=
EXTT11=
EXTT12=
EXTT13=
PLAYORDER=
